<?xml version="1.0" standalone="no"?>
<!DOCTYPE svg PUBLIC "-//W3C//DTD SVG 20010904//EN"
 "http://www.w3.org/TR/2001/REC-SVG-20010904/DTD/svg10.dtd">
<svg version="1.0" xmlns="http://www.w3.org/2000/svg"
 width="512.000000pt" height="512.000000pt" viewBox="0 0 512.000000 512.000000"
 preserveAspectRatio="xMidYMid meet">

<g transform="translate(0.000000,512.000000) scale(0.100000,-0.100000)"
fill="#000000" stroke="none">
<path d="M3108 4938 l-35 -103 -94 -33 c-52 -18 -133 -52 -180 -75 l-87 -43
-97 49 -98 49 -111 -111 -111 -111 -1004 0 c-759 0 -1014 -3 -1045 -12 -55
-16 -138 -99 -154 -154 -17 -60 -17 -3448 0 -3508 16 -55 99 -138 154 -154 31
-9 237 -12 818 -12 l776 0 0 -320 0 -320 480 0 480 0 0 560 0 560 -200 0 -200
0 0 80 0 80 480 0 480 0 0 -80 0 -80 -200 0 -200 0 0 -560 0 -560 480 0 480 0
0 560 0 560 -200 0 -200 0 0 80 0 80 480 0 480 0 0 -80 0 -80 -200 0 -200 0 0
-560 0 -560 480 0 480 0 0 560 0 560 -200 0 -200 0 0 160 0 160 -120 0 -120 0
0 307 0 308 191 191 191 191 -49 97 -49 98 43 87 c23 47 57 128 75 180 l33 94
103 35 102 34 0 298 0 298 -102 34 -103 35 -33 94 c-18 52 -52 133 -75 180
l-43 87 49 98 49 97 -210 209 -209 210 -97 -49 -98 -49 -88 44 c-49 24 -130
58 -181 75 l-92 32 -35 103 -34 102 -298 0 -298 0 -34 -102z m546 -152 l31
-89 85 -23 c114 -30 201 -65 304 -125 l86 -49 85 42 85 43 129 -129 130 -129
-44 -87 -43 -86 34 -55 c50 -80 110 -223 137 -325 l24 -89 89 -31 89 -31 0
-183 0 -183 -89 -31 -89 -31 -24 -89 c-27 -102 -87 -245 -137 -325 l-34 -55
43 -86 44 -87 -130 -129 -129 -129 -85 43 -86 42 -67 -40 c-94 -55 -214 -106
-318 -133 l-89 -24 -31 -89 -31 -89 -183 0 -183 0 -31 89 -31 89 -85 23 c-104
27 -230 80 -320 133 l-68 41 -64 -34 c-112 -58 -95 -64 -239 80 l-128 127 44
86 43 86 -44 75 c-57 96 -98 197 -128 307 l-23 88 -89 31 -89 31 0 183 0 183
89 31 89 31 24 89 c27 102 87 245 137 325 l34 55 -43 86 -44 87 127 126 c70
70 131 127 136 127 5 0 45 -18 88 -40 l78 -41 69 41 c91 54 216 106 321 134
l85 23 27 74 c14 41 28 82 31 92 5 16 20 17 188 15 l182 -3 31 -89z m-1538
-405 c-16 -18 -15 -24 33 -118 l49 -99 -28 -50 c-16 -27 -42 -82 -57 -121
l-28 -73 -922 0 -923 0 0 215 c0 216 0 216 25 240 l24 25 922 0 c905 0 922 0
905 -19z m-248 -633 l-28 -10 0 -298 0 -298 102 -34 103 -35 33 -94 c18 -52
52 -133 75 -180 l43 -87 -49 -98 -49 -97 210 -209 209 -210 97 49 98 49 87
-43 c47 -23 128 -57 180 -75 l94 -33 35 -102 34 -103 109 0 109 0 0 -160 0
-160 -560 0 -560 0 0 -160 0 -160 -200 0 -200 0 0 -160 0 -160 -775 0 -776 0
-24 25 -25 24 0 1416 0 1415 828 -1 c566 0 818 -4 800 -11z m2372 -1908 l0
-320 -360 0 -360 0 0 160 0 160 109 0 109 0 34 103 35 102 94 32 c52 18 132
52 179 76 l85 43 38 -18 37 -18 0 -320z m-1600 -1200 l0 -400 -320 0 -320 0 0
400 0 400 320 0 320 0 0 -400z m1120 0 l0 -400 -320 0 -320 0 0 400 0 400 320
0 320 0 0 -400z m1120 0 l0 -400 -320 0 -320 0 0 400 0 400 320 0 320 0 0
-400z"/>
<path d="M2645 3991 c-92 -24 -173 -90 -215 -176 l-25 -50 -3 -362 -3 -363 80
0 81 0 0 160 0 160 160 0 160 0 0 -160 0 -160 81 0 80 0 -3 363 -3 362 -27 51
c-40 75 -70 107 -137 143 -65 34 -164 49 -226 32z m163 -178 c58 -43 67 -66
70 -184 l4 -109 -161 0 -161 0 0 94 c0 129 22 179 95 212 40 19 119 12 153
-13z"/>
<path d="M3200 3521 l0 -481 80 0 80 0 0 159 0 159 123 4 c107 4 128 8 173 31
75 38 107 69 145 139 31 58 34 70 33 148 0 72 -4 93 -26 136 -39 75 -70 107
-140 145 l-63 34 -202 3 -203 4 0 -481z m406 293 c53 -39 69 -71 69 -134 0
-63 -16 -95 -69 -134 -23 -18 -45 -22 -137 -24 l-109 -4 0 162 0 162 109 -4
c92 -2 114 -6 137 -24z"/>
<path d="M3920 3920 l0 -80 80 0 80 0 0 -320 0 -320 -80 0 -80 0 0 -80 0 -80
240 0 240 0 0 80 0 80 -80 0 -80 0 0 320 0 320 80 0 80 0 0 80 0 80 -240 0
-240 0 0 -80z"/>
<path d="M400 4160 l0 -80 80 0 80 0 0 80 0 80 -80 0 -80 0 0 -80z"/>
<path d="M720 4160 l0 -80 80 0 80 0 0 80 0 80 -80 0 -80 0 0 -80z"/>
<path d="M1040 4160 l0 -80 80 0 80 0 0 80 0 80 -80 0 -80 0 0 -80z"/>
<path d="M400 3120 l0 -480 640 0 640 0 0 480 0 480 -640 0 -640 0 0 -480z
m1120 0 l0 -320 -480 0 -480 0 0 320 0 320 480 0 480 0 0 -320z"/>
<path d="M400 2400 l0 -80 640 0 640 0 0 80 0 80 -640 0 -640 0 0 -80z"/>
<path d="M400 2080 l0 -80 400 0 400 0 0 80 0 80 -400 0 -400 0 0 -80z"/>
<path d="M1360 2080 l0 -80 160 0 160 0 0 80 0 80 -160 0 -160 0 0 -80z"/>
<path d="M400 1760 l0 -80 640 0 640 0 0 80 0 80 -640 0 -640 0 0 -80z"/>
<path d="M400 1440 l0 -80 80 0 80 0 0 80 0 80 -80 0 -80 0 0 -80z"/>
<path d="M720 1440 l0 -80 480 0 480 0 0 80 0 80 -480 0 -480 0 0 -80z"/>
<path d="M400 1120 l0 -80 640 0 640 0 0 80 0 80 -640 0 -640 0 0 -80z"/>
<path d="M2160 800 l0 -80 160 0 160 0 0 80 0 80 -160 0 -160 0 0 -80z"/>
<path d="M2160 480 l0 -80 160 0 160 0 0 80 0 80 -160 0 -160 0 0 -80z"/>
<path d="M3280 800 l0 -80 160 0 160 0 0 80 0 80 -160 0 -160 0 0 -80z"/>
<path d="M3280 480 l0 -80 160 0 160 0 0 80 0 80 -160 0 -160 0 0 -80z"/>
<path d="M4400 800 l0 -80 160 0 160 0 0 80 0 80 -160 0 -160 0 0 -80z"/>
<path d="M4400 480 l0 -80 160 0 160 0 0 80 0 80 -160 0 -160 0 0 -80z"/>
</g>
</svg>
